<svg width="16" height="16" viewBox="0 0 16 16" fill="none" xmlns="http://www.w3.org/2000/svg">
<rect width="16"/>
<path d="M7.59995 12.5679C6.98884 12.5679 6.41645 12.4517 5.88277 12.2195C5.34901 11.9873 4.88457 11.6736 4.48944 11.2784C4.09423 10.8832 3.78051 10.4188 3.54828 9.88504C3.36739 9.46931 3.25695 9.03009 3.21697 8.56738C3.19795 8.34729 3.37904 8.16786 3.59995 8.16786H3.74281C3.96372 8.16786 4.14024 8.34753 4.16352 8.56722C4.24635 9.34921 4.57775 10.0302 5.15769 10.6101C5.83428 11.2867 6.64836 11.625 7.59995 11.625C8.55154 11.625 9.36563 11.2867 10.0422 10.6101C10.7188 9.93353 11.0571 9.11945 11.0571 8.16786C11.0571 7.21627 10.7188 6.40218 10.0422 5.7256C9.36563 5.04901 8.54984 4.71072 7.59484 4.71072C7.56773 4.71072 7.55416 4.74349 7.57333 4.76266L7.99363 5.18296C8.10166 5.29099 8.10166 5.46615 7.99363 5.57418L7.80422 5.76359C7.64801 5.9198 7.39475 5.9198 7.23854 5.76359L5.99708 4.52213C5.84087 4.36592 5.84087 4.11265 5.99708 3.95644L7.23854 2.71499C7.39475 2.55878 7.64801 2.55878 7.80422 2.71499L7.99227 2.90303C8.10074 3.01151 8.09989 3.18763 7.99037 3.29505L7.57373 3.70367C7.54978 3.72716 7.56641 3.76786 7.59995 3.76786C8.21106 3.76786 8.78346 3.88397 9.31713 4.11619C9.85089 4.34841 10.3153 4.66213 10.7105 5.05735C11.1057 5.45247 11.4194 5.91692 11.6516 6.45068C11.8838 6.98435 12 7.55675 12 8.16786C12 8.77897 11.8838 9.35136 11.6516 9.88504C11.4194 10.4188 11.1057 10.8832 10.7105 11.2784C10.3153 11.6736 9.85089 11.9873 9.31713 12.2195C8.78346 12.4517 8.21106 12.5679 7.59995 12.5679Z" fill="currentColor"/>
</svg>
